*******************************************************************************
                            Am I Evil (2007) DVDrip
*******************************************************************************

-------------------------------------------------------------------------------
                              General Information
-------------------------------------------------------------------------------
Type.................: Movie



Video Format.........: AVI
Video Bitrate........: 1379
Resolution...........: 640 x 360
Color................: 8
FPS..................: 29.970
Source...............: DVD 16x9
Original Format......: NTSC
Genre................: Horror
IMDb Rating..........: 5.1
Movie Information....: http://www.imdb.com/title/tt1141633/

-------------------------------------------------------------------------------
                               Post Information
-------------------------------------------------------------------------------
Posted by............: RadioResearch
Posted on............: 3/29/2013

-------------------------------------------------------------------------------
                                 Release Notes
-------------------------------------------------------------------------------
SEEDBOX SUPPORTED!!

Andrew Lakewood seems to be a normal average guy. He was raised by a loving 
family and has a close relationship with his older brother. His girlfriend 
adores him and his best friend could only think he knew everything about him. 
But deep inside of Andrew is a dark side, that has been masked over the years. 
Until one day, his thoughts and fantasies become real!

Unfortunately, Dark Vision Films simply had to make their promo part of the film 
and the first few minutes is nothing more than a promo for them, a la Troma.  
The main film is in black and white, and it does work for this particular flick.

Enjoy!

RadioResearch

General
Complete name                            : G:AVIaviAM_I_EVIL
AM_I_EVIL.Title1.avi
Format                                   : AVI
Format/Info                              : Audio Video Interleave
File size                                : 969 MiB
Duration                                 : 1h 38mn
Overall bit rate                         : 1 379 Kbps
Movie name                               : AM_I_EVIL.Title1.DVDRip
Writing application                      : Lavf53.32.100
Original source form/Name                : AM_I_EVIL

Video
ID                                       : 0
Format                                   : MPEG-4 Visual
Format profile                           : Advanced Simple@L5
Format settings, BVOP                    : 2
Format settings, QPel                    : No
Format settings, GMC                     : No warppoints
Format settings, Matrix                  : Default (H.263)
Muxing mode                              : Packed bitstream
Codec ID                                 : XVID
Codec ID/Hint                            : XviD
Duration                                 : 1h 38mn
Bit rate                                 : 1 239 Kbps
Width                                    : 640 pixels
Height                                   : 360 pixels
Display aspect ratio                     : 16:9
Frame rate                               : 29.970 fps
Color space                              : YUV
Chroma subsampling                       : 4:2:0
Bit depth                                : 8 bits
Scan type                                : Progressive
Compression mode                         : Lossy
Bits/(Pixel*Frame)                       : 0.179
Stream size                              : 871 MiB (90%)
Writing library                          : XviD 64

Audio
ID                                       : 1
Format                                   : AC-3
Format/Info                              : Audio Coding 3
Mode extension                           : CM (complete main)
Format settings, Endianness              : Big
Codec ID                                 : 2000
Duration                                 : 1h 38mn
Bit rate mode                            : Constant
Bit rate                                 : 128 Kbps
Channel(s)                               : 2 channels
Channel positions                        : Front: L R
Sampling rate                            : 48.0 KHz
Bit depth                                : 16 bits
Compression mode                         : Lossy
Stream size                              : 89.9 MiB (9%)
Alignment                                : Aligned on interleaves
Interleave, duration                     : 32 ms (0.96 video frame)




-------------------------------------------------------------------------------
Generated with Cool NFO Creator - http://fly.to/coolbeans
-------------------------------------------------------------------------------
